# xmcd
#
# Track frame offsets: 
#        150
#        24257
#        41515
#        60852
#        76265
#        90507
#        104085
#        130300
#        150285
#        166677
#
# Disc length: 2506 seconds
#
# Revision: 0
# Processed by: cddbd v1.5.2PL0 Copyright (c) Steve Scherf et al.
# Submitted via: ExactAudioCopy v0.99pb3
#
DISCID=6409c80a
DTITLE=Sugar Pie DeSanto - A Slice Of Pie
DYEAR=1999
DGENRE=Blues
TTITLE0=Shoppin' Cart Blues
TTITLE1=Keep It Like It Is
TTITLE2=Straighten It Out With Your Man
TTITLE3=Hello, San Francisco (Part 1)
TTITLE4=Hello, San Francisco (Part 2)
TTITLE5=Git Back
TTITLE6=Face The Hard Times
TTITLE7=Goodbye
TTITLE8=Blues Express (Part 1)
TTITLE9=Blues Express (Part 2)
EXTD=
EXTT0=
EXTT1=
EXTT2=
EXTT3=
EXTT4=
EXTT5=
EXTT6=
EXTT7=
EXTT8=
EXTT9=
PLAYORDER=
